<svg xmlns="http://www.w3.org/2000/svg" fill="none" viewBox="-0.5 -0.5 24 24" height="24" width="24"><g id="invisible-1--disable-eye-eyeball-hide-off-view"><path id="Vector" stroke="#000" stroke-linecap="round" stroke-linejoin="round" d="M13.044 14.401a3.286 3.286 0 1 0 -4.452 -4.436" stroke-width="1"></path><path id="Vector_2" stroke="#000" stroke-linecap="round" stroke-linejoin="round" d="M16.7 17.652C19.732 15.724 21.768 12.65 21.768 11.5c0 -1.725 -4.597 -7.804 -10.268 -7.804 -2.381 0 -4.57 1.071 -6.312 2.441" stroke-width="1"></path><path id="Vector_3" stroke="#000" stroke-linecap="round" stroke-linejoin="round" d="M13.412 19.077A8.357 8.357 0 0 1 11.5 19.304C5.829 19.304 1.232 13.225 1.232 11.5c0 -0.595 0.545 -1.704 1.492 -2.905" stroke-width="1"></path><path id="Vector_4" stroke="#000" stroke-linecap="round" stroke-linejoin="round" d="M0.986 0.986c7.222 9.253 11.579 13.559 21.029 21.029" stroke-width="1"></path></g></svg>